<?xml version="1.0" standalone="no"?>
<!DOCTYPE svg PUBLIC "-//W3C//DTD SVG 20010904//EN"
 "http://www.w3.org/TR/2001/REC-SVG-20010904/DTD/svg10.dtd">
<svg version="1.0" xmlns="http://www.w3.org/2000/svg"
 width="700.000000pt" height="700.000000pt" viewBox="0 0 700.000000 700.000000"
 preserveAspectRatio="xMidYMid meet">
<metadata>
Created by potrace 1.14, written by Peter Selinger 2001-2017
</metadata>
<g transform="translate(0.000000,700.000000) scale(0.100000,-0.100000)"
fill="#000000" stroke="none">
<path d="M3415 6150 c5 -8 28 -40 51 -70 322 -426 433 -1024 289 -1557 -195
-724 -814 -1250 -1567 -1332 -442 -49 -914 80 -1268 344 -86 64 -89 63 -27 -5
269 -298 637 -502 1042 -576 125 -23 478 -26 595 -6 397 70 733 242 1006 516
269 271 439 595 510 977 25 132 29 411 10 552 -52 369 -196 685 -443 970 -65
75 -217 219 -198 187z"/>
<path d="M1868 5710 c-64 -22 -615 -286 -636 -305 -2 -2 138 -289 311 -639
l315 -636 229 112 c336 164 413 210 491 293 113 119 148 219 140 400 -6 123
-30 207 -98 349 -57 118 -115 202 -194 282 -164 164 -354 213 -558 144z m247
-268 c165 -85 362 -495 316 -659 -22 -80 -85 -134 -260 -222 l-157 -80 -207
415 c-114 228 -207 416 -207 417 0 6 235 116 291 137 69 25 167 22 224 -8z"/>
<path d="M6123 3583 c184 -240 307 -537 353 -853 22 -153 14 -449 -15 -594
-117 -571 -474 -1037 -986 -1286 -146 -71 -255 -110 -406 -144 -290 -65 -590
-58 -879 20 -203 55 -450 176 -612 301 -57 43 -61 45 -41 17 40 -56 227 -227
324 -296 109 -78 306 -182 429 -226 413 -150 879 -148 1274 4 921 356 1396
1356 1085 2288 -65 197 -159 373 -288 541 -56 73 -192 216 -246 259 l-40 31
48 -62z"/>
<path d="M3967 2722 c-76 -383 -139 -706 -140 -716 -2 -15 26 -32 141 -84 128
-59 144 -64 155 -49 25 33 672 815 673 813 1 0 -38 -233 -87 -516 -49 -283
-88 -523 -87 -533 3 -19 253 -141 274 -133 11 4 896 1117 902 1134 3 9 -235
122 -255 122 -7 0 -143 -174 -304 -386 -160 -212 -293 -383 -295 -381 -3 3 33
211 80 463 47 253 87 469 88 482 3 20 -13 30 -147 93 -82 38 -154 68 -160 65
-6 -2 -150 -172 -320 -379 -171 -206 -311 -374 -312 -373 0 0 46 215 103 476
57 261 100 477 96 481 -9 9 -251 119 -260 119 -4 0 -69 -314 -145 -698z"/>
</g>
</svg>
